<svg width="24" height="24" viewBox="0 0 24 24" fill="none" xmlns="http://www.w3.org/2000/svg">
<path d="M17.0504 12.04C17.0204 9.43999 19.1704 8.19 19.2704 8.13C18.0604 6.36 16.1704 6.11 15.5004 6.08C13.9004 5.92 12.3704 7.02 11.5604 7.02C10.7504 7.02 9.49039 6.1 8.16039 6.12C6.41039 6.15 4.80039 7.14 3.90039 8.7C2.08039 11.86 3.43039 16.53 5.20039 19.1C6.06039 20.35 7.09039 21.76 8.44039 21.71C9.74039 21.66 10.2304 20.87 11.8004 20.87C13.3704 20.87 13.8104 21.71 15.1904 21.68C16.5904 21.65 17.4804 20.4 18.3404 19.14C19.3304 17.68 19.7404 16.27 19.7604 16.2C19.7304 16.19 17.0404 15.15 17.3604 11.53L17.0504 12.04ZM14.5004 4.4C15.2204 3.53 15.7004 2.32 15.5704 1.12C14.5404 1.16 13.2904 1.81 12.5504 2.67C11.8904 3.44 11.3104 4.67 11.4704 5.85C12.6204 5.94 13.7904 5.27 14.5004 4.4Z" fill="#1F3D2B"/>
</svg>
