<svg width="24" height="24" viewBox="0 0 24 24" fill="none" xmlns="http://www.w3.org/2000/svg">
<path d="M22.56 12.25C22.56 11.47 22.49 10.72 22.36 10H12V14.26H17.92C17.797 14.9334 17.5385 15.5749 17.1604 16.1456C16.7822 16.7162 16.2922 17.2042 15.72 17.58V20.34H19.29C21.37 18.42 22.57 15.6 22.57 12.25H22.56Z" fill="#1F3D2B"/>
<path d="M11.9997 23C14.9697 23 17.4597 22.02 19.2797 20.34L15.7097 17.58C14.7297 18.24 13.4797 18.64 11.9997 18.64C9.13969 18.64 6.70969 16.71 5.83969 14.11H2.17969V16.95C3.09609 18.7686 4.49934 20.2971 6.23314 21.3653C7.96695 22.4335 9.96325 22.9994 11.9997 23Z" fill="#1F3D2B"/>
<path d="M5.83962 14.11C5.37779 12.7412 5.37779 11.2587 5.83962 9.88999V7.04999H2.17962C1.40594 8.58536 1.00293 10.2807 1.00293 12C1.00293 13.7193 1.40594 15.4146 2.17962 16.95L5.83962 14.11Z" fill="#1F3D2B"/>
<path d="M11.9997 4.75C13.6197 4.75 15.0597 5.31 16.2097 6.39L19.3597 3.24C17.4497 1.46 14.9697 0.5 11.9997 0.5C9.90962 0.545776 7.87588 1.1862 6.1367 2.34624C4.39752 3.50629 3.02491 5.13792 2.17969 7.05L5.83969 9.89C6.70969 7.28 9.13969 4.75 11.9997 4.75Z" fill="#1F3D2B"/>
</svg>
